<?xml version="1.0" encoding="UTF-8"?>
<!-- Generated by jsxcad -->
<!DOCTYPE svg PUBLIC "-//W3C//DTD SVG 1.1 Tiny//EN" "http://www.w3.org/Graphics/SVG/1.1/DTD/svg11-tiny.dtd">
<svg viewBox="-250 -250 500 500" width="500" height="500" xmlns="http://www.w3.org/2000/svg"><path d="M53.89040058536871,113.54997493338684L-67.5654161117434,-98.04280332257228L43.1230816890462,110.92568360449816z" style="fill:rgb(67,34,190)"/><path d="M63.688090796536024,96.20278115358323L-42.373272143017765,-105.25790146845902L64.2434212786372,106.1196710630933z" style="fill:rgb(247,158,158)"/><path d="M64.2434212786372,106.1196710630933L-55.303758492789164,-96.60653945179418L53.89040058536871,113.54997493338684z" style="fill:rgb(187,64,221)"/><path d="M63.688090796536024,96.20278115358323L-41.925097035621484,-115.156325536072L-42.373272143017765,-105.25790146845902z" style="fill:rgb(247,158,158)"/><path d="M53.89040058536871,113.54997493338684L-55.303758492789164,-96.60653945179418L-67.5654161117434,-98.04280332257228z" style="fill:rgb(67,34,190)"/><path d="M64.2434212786372,106.1196710630933L-42.373272143017765,-105.25790146845902L-55.303758492789164,-96.60653945179418z" style="fill:rgb(187,64,221)"/><path d="M-41.925097035621484,-115.156325536072L-54.14364988073855,-116.41956494268427L-66.85523671804108,-107.9554433318553zM-41.925097035621484,-115.156325536072L-66.85523671804108,-107.9554433318553L-55.303758492789164,-96.60653945179418zM-57.80605924693332,-149.62314626168117L-73.06394917269063,-145.06662040974575L-86.3299622445585,-135.80265157422997zM-66.85523671804108,-107.9554433318553L-67.5654161117434,-98.04280332257228L-55.303758492789164,-96.60653945179418zM-55.303758492789164,-96.60653945179418L-42.373272143017765,-105.25790146845902L-41.925097035621484,-115.156325536072zM-57.80605924693332,-149.62314626168117L-86.3299622445585,-135.80265157422997L-92.44226057536044,-114.85363457700201zM-86.3299622445585,-135.80265157422997L-93.58426387699504,-124.59156489688942L-92.44226057536044,-114.85363457700201z" style="fill:rgb(83,212,212)"/><path d="M-92.44226057536044,-114.85363457700201L-79.8984766186235,-91.7740942253611L-70.50509655335779,-86.51291765734716z" style="fill:rgb(36,45,163)"/><path d="M-39.10502029440338,-140.66317449829245L-45.15435045688485,-148.0439498629203L-57.80605924693332,-149.62314626168117z" style="fill:rgb(83,212,212)"/><path d="M-41.81552764652666,-129.65974066243382L-30.137483752078975,-105.99145415786211L-27.604738717796828,-117.02530823351962zM-27.604738717796828,-117.02530823351962L-39.10502029440338,-140.66317449829245L-41.81552764652666,-129.65974066243382z" style="fill:rgb(246,145,170)"/><path d="M-92.44226057536044,-114.85363457700201L-52.64865796331132,-118.56144371566617L-57.80605924693332,-149.62314626168117z" style="fill:rgb(83,212,212)"/><path d="M-82.99771749402008,-109.74593630681508L-70.50509655335779,-86.51291765734716L-55.827087413460184,-87.66882752063792z" style="fill:rgb(93,32,205)"/><path d="M-52.64865796331132,-118.56144371566617L-39.10502029440338,-140.66317449829245L-57.80605924693332,-149.62314626168117z" style="fill:rgb(83,212,212)"/><path d="M-70.50509655335779,-86.51291765734716L-82.99771749402008,-109.74593630681508L-92.44226057536044,-114.85363457700201z" style="fill:rgb(36,45,163)"/><path d="M-52.64865796331132,-118.56144371566617L-40.67936839761692,-94.97491129281084L-30.137483752078975,-105.99145415786211z" style="fill:rgb(218,91,209)"/><path d="M-68.10410579566081,-111.09105900922204L-55.827087413460184,-87.66882752063792L-40.67936839761692,-94.97491129281084z" style="fill:rgb(161,49,222)"/><path d="M-30.137483752078975,-105.99145415786211L-41.81552764652666,-129.65974066243382L-52.64865796331132,-118.56144371566617z" style="fill:rgb(218,91,209)"/><path d="M-55.827087413460184,-87.66882752063792L-68.10410579566081,-111.09105900922204L-82.99771749402008,-109.74593630681508z" style="fill:rgb(93,32,205)"/><path d="M-92.44226057536044,-114.85363457700201L-82.99771749402008,-109.74593630681508L-52.64865796331132,-118.56144371566617zM-52.64865796331132,-118.56144371566617L-41.81552764652666,-129.65974066243382L-39.10502029440338,-140.66317449829245z" style="fill:rgb(83,212,212)"/><path d="M-40.67936839761692,-94.97491129281084L-52.64865796331132,-118.56144371566617L-68.10410579566081,-111.09105900922204z" style="fill:rgb(161,49,222)"/><path d="M-82.99771749402008,-109.74593630681508L-68.10410579566081,-111.09105900922204L-52.64865796331132,-118.56144371566617z" style="fill:rgb(83,212,212)"/></svg>
