<?xml version="1.0" encoding="UTF-8"?>
<!-- Generated by jsxcad -->
<!DOCTYPE svg PUBLIC "-//W3C//DTD SVG 1.1 Tiny//EN" "http://www.w3.org/Graphics/SVG/1.1/DTD/svg11-tiny.dtd">
<svg viewBox="-250 -250 500 500" width="500" height="500" xmlns="http://www.w3.org/2000/svg"><path d="M-41.92509332234504,-115.1563329624829L64.24342740102792,106.11967106309329L63.688096865966685,96.20277508405938z" style="fill:rgb(247,158,158)"/><path d="M-55.30375849278915,-96.60653945179415L43.123078139106354,110.92568230805969L53.890400585368695,113.54997493338679z" style="fill:rgb(67,34,190)"/><path d="M-42.37326839004645,-105.25790897426467L53.890400585368695,113.54997493338679L64.24342740102792,106.11967106309329z" style="fill:rgb(187,64,221)"/><path d="M64.24342740102792,106.11967106309329L-41.92509332234504,-115.1563329624829L-42.37326839004645,-105.25790897426467z" style="fill:rgb(247,158,158)"/><path d="M43.123078139106354,110.92568230805969L-55.30375849278915,-96.60653945179415L-67.56542308645304,-98.042802619579z" style="fill:rgb(67,34,190)"/><path d="M53.890400585368695,113.54997493338679L-42.37326839004645,-105.25790897426467L-55.30375849278915,-96.60653945179415z" style="fill:rgb(187,64,221)"/><path d="M-67.56542308645304,-98.042802619579L-54.143649497822715,-116.41956411860298L-66.85524362442555,-107.95544994618004zM-54.143649497822715,-116.41956411860298L-42.37326839004645,-105.25790897426467L-41.92509332234504,-115.1563329624829zM-54.143649497822715,-116.41956411860298L-67.56542308645304,-98.042802619579L-55.30375849278915,-96.60653945179415zM-54.143649497822715,-116.41956411860298L-55.30375849278915,-96.60653945179415L-42.37326839004645,-105.25790897426467zM-92.4422578729254,-114.8536540460261L-86.32996970038802,-135.80263666301252L-93.58427004565804,-124.59157061615551zM-86.32996970038802,-135.80263666301252L-82.99773935591575,-109.74592698691198L-73.06392791215909,-145.06662248265775z" style="fill:rgb(83,212,212)"/><path d="M-70.50511866557534,-86.51290948924597L-92.4422578729254,-114.8536540460261L-79.89847432950776,-91.77411396705205z" style="fill:rgb(36,45,163)"/><path d="M-73.06392791215909,-145.06662248265775L-68.10410579561011,-111.09106676010117L-57.80608122218828,-149.62313026249183z" style="fill:rgb(83,212,212)"/><path d="M-27.604734783874225,-117.02531486468256L-41.81552640848077,-129.65975223512467L-30.13748309635252,-105.99147450416443z" style="fill:rgb(246,145,170)"/><path d="M-57.80608122218828,-149.62313026249183L-52.64863548199538,-118.56145323823182L-45.15434325038262,-148.04393586842517zM-86.32996970038802,-135.80263666301252L-92.4422578729254,-114.8536540460261L-82.99773935591575,-109.74592698691198z" style="fill:rgb(83,212,212)"/><path d="M-41.81552640848077,-129.65975223512467L-27.604734783874225,-117.02531486468256L-39.10501648234731,-140.66317449829242z" style="fill:rgb(246,145,170)"/><path d="M-92.4422578729254,-114.8536540460261L-70.50511866557534,-86.51290948924597L-82.99773935591575,-109.74592698691198z" style="fill:rgb(36,45,163)"/><path d="M-45.15434325038262,-148.04393586842517L-41.81552640848077,-129.65975223512467L-39.10501648234731,-140.66317449829242zM-73.06392791215909,-145.06662248265775L-82.99773935591575,-109.74592698691198L-68.10410579561011,-111.09106676010117z" style="fill:rgb(83,212,212)"/><path d="M-68.10410579561011,-111.09106676010117L-70.50511866557534,-86.51290948924597L-55.82708659922492,-87.66883383392998z" style="fill:rgb(93,32,205)"/><path d="M-30.13748309635252,-105.99147450416443L-52.64863548199538,-118.56145323823182L-40.67934619873461,-94.97492027761155z" style="fill:rgb(218,91,209)"/><path d="M-52.64863548199538,-118.56145323823182L-55.82708659922492,-87.66883383392998L-40.67934619873461,-94.97492027761155z" style="fill:rgb(161,49,222)"/><path d="M-57.80608122218828,-149.62313026249183L-68.10410579561011,-111.09106676010117L-52.64863548199538,-118.56145323823182z" style="fill:rgb(83,212,212)"/><path d="M-70.50511866557534,-86.51290948924597L-68.10410579561011,-111.09106676010117L-82.99773935591575,-109.74592698691198z" style="fill:rgb(93,32,205)"/><path d="M-45.15434325038262,-148.04393586842517L-52.64863548199538,-118.56145323823182L-41.81552640848077,-129.65975223512467z" style="fill:rgb(83,212,212)"/><path d="M-52.64863548199538,-118.56145323823182L-30.13748309635252,-105.99147450416443L-41.81552640848077,-129.65975223512467z" style="fill:rgb(218,91,209)"/><path d="M-55.82708659922492,-87.66883383392998L-52.64863548199538,-118.56145323823182L-68.10410579561011,-111.09106676010117z" style="fill:rgb(161,49,222)"/></svg>
